<svg width="14" height="12" viewBox="0 0 14 12" fill="none" xmlns="http://www.w3.org/2000/svg">
<path d="M6.96428 12C6.29177 11.4918 5.66408 11.0119 5.00651 10.5179C6.02276 9.26157 7.09879 8.14643 8.48865 7.15833C8.23459 7.1301 8.08514 7.11599 7.93569 7.11599C5.4698 7.11599 2.98896 7.11599 0.523068 7.11599C0.0149448 7.11599 0.0149448 7.11599 0 6.62194C0 6.0432 0 5.45034 0 4.82925C2.83951 4.82925 5.61925 4.82925 8.39898 4.82925C8.42887 4.78691 8.47371 4.73045 8.5036 4.6881C8.38404 4.63164 8.26448 4.57517 8.15987 4.50459C7.02406 3.7 6.08254 2.71191 5.20079 1.68147C4.99157 1.4415 5.05135 1.31446 5.27552 1.14507C5.73881 0.806297 6.18715 0.467522 6.6355 0.114631C6.88956 -0.0547567 7.03901 -0.0406411 7.23329 0.185209C8.3392 1.58266 9.59457 2.83895 11.0592 3.89762C11.926 4.51871 12.8226 5.09745 13.7044 5.67619C14.078 5.93027 14.1079 5.95851 13.7343 6.18436C12.1352 7.15834 10.5959 8.20289 9.26578 9.50153C8.57832 10.1791 7.93569 10.9131 7.27812 11.633C7.18845 11.7459 7.09879 11.8588 6.96428 12Z" fill="white"/>
</svg>
