<svg width="20" height="20" viewBox="0 0 20 20" fill="none" xmlns="http://www.w3.org/2000/svg">
<path d="M15.9555 12.9852C15.0518 12.9496 14.1452 12.917 13.2415 12.8815C13.1437 12.8785 13.1437 12.8815 13.1378 12.9763C13.0696 14.6148 13.0015 16.2563 12.9363 17.8948C12.9244 18.1941 12.9096 18.4963 12.9037 18.7985C12.8948 19.1718 12.6785 19.3822 12.3022 19.3674C11.5318 19.3378 10.7585 19.3052 9.98813 19.2726C9.31258 19.2459 8.63702 19.2163 7.96147 19.1955C7.76887 19.1896 7.5911 19.1392 7.41924 19.0652C7.27998 19.0059 7.18813 18.8933 7.14369 18.7511C7.10813 18.6385 7.08147 18.52 7.07554 18.4044C6.9985 16.8726 6.92739 15.3378 6.85332 13.8059C6.84443 13.6281 6.83554 13.4504 6.82961 13.2726C6.82665 13.2074 6.80295 13.1778 6.73776 13.1748C6.64591 13.1689 6.55702 13.1541 6.46517 13.1511C5.62369 13.1274 4.78221 13.1037 3.94073 13.0859C3.21776 13.0711 2.4948 13.0711 1.77184 13.0563C1.5911 13.0533 1.41036 13.0415 1.23258 13.0148C0.957022 12.9733 0.779244 12.8044 0.708133 12.5348C0.678503 12.4252 0.657762 12.3126 0.651836 12.2C0.622207 11.4889 0.59554 10.7807 0.568873 10.0696C0.548133 9.50962 0.62517 8.95555 0.690355 8.40443C0.717022 8.18517 0.722947 7.96592 0.746651 7.74962C0.770355 7.54221 0.844429 7.35258 0.965911 7.18369C1.10221 6.9911 1.28591 6.88443 1.52591 6.89629C2.05924 6.92592 2.58665 6.88147 3.11406 6.81629C3.2385 6.80147 3.36591 6.79851 3.49035 6.79851C4.4148 6.77777 5.33924 6.75703 6.26665 6.74221C6.45924 6.73925 6.65184 6.74814 6.84443 6.75999C6.91554 6.76295 6.93924 6.7511 6.94221 6.67406C6.96887 4.84295 7.00147 3.01184 7.02221 1.18369C7.02517 0.949619 7.09924 0.742212 7.17628 0.534805C7.22665 0.398508 7.34517 0.309619 7.48147 0.274064C7.62665 0.235545 7.77776 0.208878 7.92591 0.205915C8.7585 0.191101 9.58813 0.185175 10.4207 0.176286C11.0074 0.17036 11.5941 0.164434 12.1837 0.158508C12.2637 0.158508 12.3407 0.161471 12.4207 0.167397C12.72 0.182212 12.9155 0.357026 12.9629 0.656286C12.9778 0.757026 12.9807 0.857768 12.9837 0.958508C13.0044 2.4548 13.0252 3.95406 13.0459 5.45036C13.0489 5.77629 13.0548 6.10221 13.0578 6.42814C13.0578 6.49925 13.0815 6.52295 13.1526 6.52592C14.5896 6.61184 16.0296 6.69777 17.4667 6.78369C17.8963 6.81036 18.3229 6.83406 18.7526 6.86073C19.1348 6.88443 19.3333 7.07406 19.3778 7.45332C19.3896 7.54517 19.3896 7.63999 19.3896 7.7348C19.4044 9.19555 19.4222 10.6563 19.4341 12.117C19.4341 12.2415 19.4281 12.3689 19.4104 12.4933C19.3867 12.6474 19.3007 12.7718 19.1644 12.8548C19.1378 12.8726 19.1081 12.8874 19.0844 12.9081C18.9333 13.0592 18.7467 13.0948 18.5392 13.0859C17.677 13.0504 16.8148 13.0207 15.9555 12.9852Z" fill="#FFB400"/>
</svg>
