<svg width="22" height="20" viewBox="0 0 22 20" fill="none" xmlns="http://www.w3.org/2000/svg">
<path d="M21.7422 6.70225C21.7807 7.25336 21.757 7.85188 21.6978 8.4504C21.6504 8.9304 21.6 9.41336 21.5585 9.89336C21.5319 10.2104 21.5289 10.5304 21.5052 10.8474C21.4726 11.2652 21.4252 11.683 21.3956 12.1008C21.3778 12.3497 21.3837 12.5985 21.3659 12.8474C21.3185 13.4726 21.2741 14.0978 21.2059 14.72C21.1704 15.0311 21.0874 15.3393 20.9452 15.6267C20.8326 15.8519 20.6785 16.0208 20.4563 16.1423C20 16.3971 19.52 16.4919 18.9985 16.4771C18.4978 16.4623 17.997 16.4504 17.4993 16.403C17.443 16.3971 17.3867 16.4 17.3304 16.3971C16.5363 16.3852 15.7422 16.3734 14.9482 16.3674C14.5689 16.3645 14.1896 16.3704 13.8074 16.3704C13.7333 16.3704 13.683 16.3941 13.6356 16.4504C13.5556 16.5482 13.4696 16.64 13.3807 16.7289C12.4682 17.6474 11.5556 18.566 10.64 19.4845C10.6015 19.526 10.56 19.5645 10.5156 19.6C10.2519 19.8193 9.91112 19.7897 9.70075 19.5171C9.60001 19.3897 9.51704 19.2474 9.42815 19.1111C8.81186 18.1571 8.1926 17.2 7.57926 16.243C7.53482 16.1719 7.48445 16.1423 7.40149 16.1423C6.66667 16.1274 5.93186 16.1215 5.19704 16.083C4.38815 16.0415 3.58223 15.9971 2.77927 15.8785C2.22815 15.7956 1.71556 15.6208 1.27704 15.2652C1.06667 15.0934 0.885932 14.8978 0.752598 14.6578C0.737784 14.6311 0.722969 14.5985 0.702228 14.5748C0.548154 14.4089 0.515562 14.1926 0.477043 13.9823C0.408895 13.6178 0.429636 13.2504 0.429636 12.883C0.429636 12.4119 0.438524 11.9408 0.465191 11.4697C0.512599 10.5867 0.580747 9.70373 0.63408 8.81781C0.654821 8.50077 0.651858 8.18077 0.672599 7.86373C0.731858 6.87707 0.800006 5.8904 0.862228 4.90077C0.87408 4.70521 0.868154 4.5067 0.882969 4.30818C0.933339 3.65633 1.12297 3.04003 1.45778 2.48299C1.90815 1.74225 2.5926 1.32447 3.44001 1.17929C3.68593 1.13781 3.94075 1.12892 4.18964 1.11707C4.44445 1.10521 4.69334 1.0904 4.94815 1.05188C5.28297 0.998548 5.62667 0.977807 5.96445 0.968919C6.55408 0.954104 7.14371 0.962993 7.73334 0.957067C9.2326 0.948178 10.7259 1.05484 12.2252 1.0904C13.1319 1.1141 14.0356 1.12299 14.9422 1.15262C15.5348 1.1704 16.1245 1.21188 16.717 1.24447C17.4696 1.28892 18.2193 1.33336 18.9689 1.38966C19.3896 1.42225 19.8074 1.48151 20.2104 1.62077C20.7793 1.81929 21.1733 2.19262 21.3659 2.77336C21.4607 3.06373 21.5496 3.35707 21.5793 3.66225C21.5941 3.81633 21.6474 3.96744 21.6593 4.12151C21.6859 4.46225 21.7037 4.80596 21.7185 5.14966C21.7333 5.51114 21.7393 5.87559 21.7482 6.23707C21.7452 6.38225 21.7422 6.51855 21.7422 6.70225ZM15.277 10.0593C15.5911 10.0623 15.8815 9.94966 16.077 9.75114C16.483 9.34521 16.5215 8.56596 16.16 8.12151C16.0652 8.00596 15.9496 7.91707 15.8045 7.87559C15.5793 7.81336 15.3511 7.77485 15.117 7.79559C14.8237 7.82522 14.5748 7.94077 14.4148 8.19559C14.2667 8.42966 14.1837 8.69336 14.1778 8.96596C14.163 9.58818 14.64 10.0563 15.277 10.0593ZM6.82964 7.40447C6.36445 7.42225 6.00297 7.64744 5.80445 8.10077C5.60889 8.5541 5.69186 8.97484 6.01482 9.33929C6.38223 9.75707 7.02519 9.78373 7.40149 9.40448C7.55852 9.24448 7.6889 9.06077 7.82519 8.88299C7.86371 8.83559 7.88741 8.77633 7.91112 8.72003C8.08001 8.33188 7.97334 7.92299 7.63556 7.66818C7.40741 7.49336 7.14667 7.4104 6.82964 7.40447ZM11.2741 7.51114C10.6696 7.51114 10.1748 7.93485 10.1185 8.46522C10.0682 8.94818 10.3911 9.47855 10.8415 9.65633C11.2919 9.83114 11.8133 9.66522 12.0504 9.25633C12.1807 9.02818 12.2607 8.77633 12.2667 8.50966C12.2756 8.09485 12.08 7.80447 11.7185 7.62077C11.5674 7.54373 11.4045 7.5141 11.2741 7.51114Z" fill="#FFB400"/>
</svg>
