<svg width="26" height="11" viewBox="0 0 26 11" fill="none" xmlns="http://www.w3.org/2000/svg">
<path d="M7.02964 1.16296C8.0815 1.12444 9.11557 1.25481 10.1171 1.57778C10.8282 1.80592 11.5096 2.10815 12.1645 2.46963C12.3956 2.59703 12.6208 2.73629 12.843 2.87555C12.9082 2.91703 12.9526 2.91703 13.0119 2.87259C13.4237 2.55852 13.8563 2.27111 14.3304 2.05185C14.5645 1.94518 14.8045 1.85333 15.0415 1.75852C15.4237 1.60444 15.8 1.43555 16.1882 1.29926C17.2459 0.919998 18.3363 0.813331 19.4563 0.925923C20.0993 0.991108 20.7185 1.13629 21.3378 1.31407C21.9719 1.49481 22.6059 1.6874 23.2015 1.96592C23.8978 2.29185 24.4637 2.77185 24.8015 3.48592C24.9467 3.79407 25.0474 4.11703 25.0889 4.45481C25.1126 4.64444 25.1363 4.83703 25.1719 5.02666C25.24 5.41481 25.2222 5.80296 25.1452 6.18222C25.0652 6.57629 24.9496 6.96148 24.8311 7.34666C24.7393 7.63703 24.5645 7.88296 24.3689 8.11703C23.88 8.70963 23.24 9.07703 22.5556 9.38814C22.1259 9.5837 21.6845 9.7437 21.2222 9.82074C20.6889 9.90963 20.1556 9.92148 19.6163 9.83852C19.2371 9.77926 18.8637 9.69333 18.4993 9.58074C18.0667 9.45037 17.643 9.29037 17.2163 9.14518C16.7333 8.98222 16.2919 8.7274 15.8326 8.50518C15.5333 8.36 15.2341 8.21185 14.9378 8.06074C14.7837 7.98074 14.6356 7.89185 14.4874 7.80296C14.3126 7.69629 14.1378 7.58963 13.9689 7.47407C13.7645 7.33481 13.56 7.18666 13.3615 7.03852C13.3022 6.99407 13.2637 7 13.2074 7.04148C12.9763 7.22222 12.7393 7.39703 12.5111 7.58074C12.3333 7.72296 12.1615 7.87703 11.9867 8.02518C11.8415 8.14963 11.6993 8.27407 11.5511 8.39259C11.3704 8.53778 11.1837 8.67703 11.0059 8.82518C10.7659 9.0237 10.5111 9.19555 10.2237 9.31111C9.55409 9.5837 8.89038 9.87111 8.21187 10.12C7.5452 10.363 6.84594 10.4815 6.13779 10.5052C5.58964 10.523 5.05927 10.3985 4.53483 10.2622C3.86224 10.0844 3.2252 9.81481 2.62964 9.45926C1.50964 8.78963 0.872606 7.80592 0.801495 6.49037C0.757051 5.65185 0.887421 4.83703 1.24298 4.06666C1.3289 3.88 1.39705 3.6874 1.4889 3.5037C1.6815 3.11852 1.97483 2.81333 2.30372 2.53777C2.91705 2.02518 3.62816 1.72889 4.39261 1.5274C5.16001 1.32592 5.93335 1.18666 6.72742 1.17481C6.8252 1.17777 6.92594 1.16889 7.02964 1.16296ZM5.9452 7.79111C6.40446 7.77926 6.79261 7.77629 7.1689 7.66963C7.6489 7.53333 8.13187 7.40889 8.58224 7.1837C8.65631 7.14815 8.73038 7.11852 8.80742 7.09185C9.26668 6.93481 9.65483 6.65926 10.0282 6.36C10.4578 6.01333 10.8726 5.64592 11.2933 5.28741C11.3733 5.21926 11.4563 5.15111 11.5363 5.08296C11.5659 5.05926 11.5867 5.03555 11.5452 5C11.2696 4.76889 10.9971 4.54074 10.6622 4.39555C10.2 4.19407 9.74372 3.98074 9.27853 3.79111C8.80149 3.59555 8.31853 3.41481 7.80298 3.34074C7.51557 3.29926 7.22816 3.25185 6.94075 3.21037C6.3215 3.11852 5.71705 3.18963 5.13927 3.42074C4.55557 3.65481 4.02224 3.98666 3.53927 4.39259C3.46224 4.45778 3.38224 4.52889 3.33483 4.61481C3.09187 5.06518 2.8815 5.5274 2.93483 6.06074C2.94075 6.10518 2.94372 6.14963 2.93779 6.19407C2.91705 6.37777 2.99409 6.52 3.12446 6.63852C3.15112 6.66222 3.17779 6.69185 3.20446 6.71555C3.54816 7.02666 3.94224 7.26074 4.36001 7.45333C4.68001 7.60148 5.00594 7.74074 5.36742 7.75851C5.58075 7.77333 5.79705 7.78518 5.9452 7.79111ZM14.3245 4.68C14.3333 4.69185 14.3363 4.70074 14.3393 4.7037C14.5733 4.87555 14.7452 5.1037 14.9408 5.31407C15.003 5.38222 15.0711 5.45037 15.1422 5.50963C15.3585 5.69333 15.5808 5.86815 15.8296 6.01037C15.9067 6.05481 15.9719 6.11407 16.043 6.1674C16.3659 6.40444 16.7037 6.6237 17.0741 6.77481C17.7645 7.05629 18.4696 7.2874 19.2074 7.42963C19.9037 7.56592 20.5911 7.54518 21.2785 7.39111C21.5037 7.34074 21.7111 7.25778 21.8948 7.11555C22.1378 6.92592 22.3274 6.68889 22.4756 6.42222C22.5348 6.31852 22.5793 6.20296 22.603 6.0874C22.6711 5.76741 22.7363 5.44444 22.6859 5.11259C22.6771 5.06222 22.6919 5.00889 22.683 4.95852C22.6711 4.87259 22.6622 4.78074 22.6296 4.70074C22.5437 4.49333 22.4282 4.3037 22.2593 4.15259C22.0815 3.99259 21.9037 3.82963 21.7171 3.68148C21.6193 3.60444 21.5067 3.53926 21.3941 3.49185C20.923 3.30222 20.443 3.14518 19.9422 3.05926C19.8059 3.03555 19.6608 3.00889 19.5245 3.0237C19.0563 3.07703 18.5911 3.15111 18.1259 3.21629C17.5333 3.29926 16.9585 3.45037 16.3956 3.64296C15.6815 3.88889 15.0089 4.22666 14.3748 4.63259C14.3571 4.65333 14.3422 4.66815 14.3245 4.68Z" fill="#FFB400"/>
</svg>
