<svg width="63" height="32" viewBox="0 0 63 32" fill="none" xmlns="http://www.w3.org/2000/svg">
<g clip-path="url(#clip0_128_2405)">
<path d="M0.493896 -0.000244141H62.9941V31.9996H0.493896V-0.000244141Z" fill="white"/>
<path d="M32.5515 1.59033H61.3685V30.3863H32.5515V1.59033Z" fill="#5367ED"/>
<path d="M22.6699 24.8108C22.6499 24.9458 22.6033 25.0756 22.5326 25.1924C22.5326 25.1924 22.4163 25.3045 22.2417 25.3584C19.6152 26.4162 16.7106 26.0594 16.7106 26.0594C11.998 25.5533 9.01405 22.6662 8.05003 18.9496C6.63285 13.3788 9.44218 9.42559 10.1278 8.57518C11.7777 6.59657 14.3625 5.1861 16.9057 4.85438C20.139 4.40221 22.5326 5.15719 23.5218 5.48905C23.5218 5.48905 24.6063 5.82916 25.4167 6.38082C25.8281 6.6547 25.8862 6.76243 25.8862 6.76243C25.8862 6.76243 25.9112 6.82056 25.799 7.24367L25.0343 11.2341C25.0052 11.4 24.9054 11.483 24.9054 11.483C24.9054 11.483 24.8515 11.5121 24.465 11.2632C22.0215 9.53346 19.1624 9.74082 19.1624 9.74082C16.9889 9.87776 14.4455 11.0184 13.6892 13.8972C13.0161 16.4524 13.7183 18.5927 15.2393 19.8662C16.2741 20.7748 17.8823 21.2268 19.5737 21.148C21.4147 21.0112 22.8858 20.2811 22.7778 20.335C22.7778 20.335 22.8567 20.306 22.9441 20.2811C23.3262 20.0902 23.4094 20.1152 23.4094 20.1152C23.4094 20.1152 23.4926 20.1981 23.4344 20.447L22.6697 24.8108" fill="#5367ED"/>
<path fill-rule="evenodd" clip-rule="evenodd" d="M51.0423 14.9497C53.5206 13.9266 53.9986 11.7436 54.135 10.6214C54.3679 8.70451 52.5229 4.41124 47.0758 4.58729H46.8535C41.4063 4.41124 39.5616 8.70451 39.7945 10.6214C39.9308 11.7436 40.4089 13.9268 42.8876 14.9499C39.688 15.958 39.1004 18.5079 38.9394 19.7838C38.6786 21.8483 40.7438 26.4718 46.8409 26.2822H47.0897C53.1868 26.4718 55.2518 21.8483 54.9911 19.7838C54.83 18.5078 54.2423 15.9577 51.0423 14.9497Z" fill="white"/>
<path d="M47.0124 12.7424C48.2695 12.7424 49.2887 11.7627 49.2887 10.5541C49.2887 9.34549 48.2695 8.36572 47.0124 8.36572C45.7552 8.36572 44.7361 9.34549 44.7361 10.5541C44.7361 11.7627 45.7552 12.7424 47.0124 12.7424Z" fill="#5367ED"/>
<path d="M47.0126 21.8808C48.3761 21.8808 49.4814 20.8227 49.4814 19.5174C49.4814 18.2122 48.3761 17.1541 47.0126 17.1541C45.649 17.1541 44.5437 18.2122 44.5437 19.5174C44.5437 20.8227 45.649 21.8808 47.0126 21.8808Z" fill="#5367ED"/>
</g>
<defs>
<clipPath id="clip0_128_2405">
<rect width="62.5" height="32" fill="white" transform="translate(0.493896)"/>
</clipPath>
</defs>
</svg>
