<svg width="97" height="32" viewBox="0 0 97 32" fill="none" xmlns="http://www.w3.org/2000/svg">
<path d="M13.6345 8.58848H13.2392C13.0938 6.06458 12.9508 3.14146 10.3895 1.84339C9.34273 1.33871 8.3419 1.41971 6.8096 1.42894L6.81884 15.5318C7.93782 15.5318 8.91143 15.0079 9.45235 14.1063C10.1735 12.9165 10.2826 11.5091 10.2826 10.0668H10.7142V21.4293H10.1823C10.1823 19.3731 10.215 17.3572 8.2039 16.2033C7.80259 16.0951 7.26168 15.9825 6.7886 15.9915V30.6251C9.31342 30.7255 10.5339 30.6251 11.6529 29.2199C12.3369 28.3897 12.8068 27.452 13.023 26.4413C13.3126 25.4317 13.3837 24.3501 13.3837 23.232H13.8164V31.0949H1.87789V30.6622H3.60864V1.37471L1.55804 1.38394V0.90625H13.6361V8.58871" fill="white"/>
<path d="M63.9166 1.51422H62.0732L62.0593 30.6026C63.7363 30.6118 64.8225 30.7332 65.8693 29.941C67.9605 28.2442 68.3941 25.684 68.4301 23.0517H68.8268V31.0937H56.6938V30.6171H58.9315L58.9431 30.553V1.49184H56.97V0.946533H63.9156V1.51422" fill="white"/>
<path d="M95.6207 8.62329H95.1892C95.1169 5.91801 94.7915 2.77981 91.907 1.77021C90.6267 1.39613 89.9958 1.50875 88.8059 1.51775L88.7921 15.4754C90.1545 15.487 90.9654 15.2149 91.5112 14.0332C92.0697 13.0053 92.2681 11.5079 92.2681 10.0656H92.7008V21.5001H92.2681C92.2323 19.4428 92.125 16.9549 89.9967 16.1255C89.5908 16.0039 89.2022 15.9813 88.7695 15.9813V30.6239C91.0785 30.7019 93.0266 30.2284 94.2163 28.2802C95.0459 26.8008 95.2981 25.07 95.3355 23.2671H95.7308V31.0577L83.8373 31.067V30.6239H85.8297V1.50875L83.7563 1.51798V0.914062H95.6216V8.62375" fill="white"/>
<path d="M37.1165 1.46864H35.1995L35.188 30.6842C36.6833 30.6819 38.0229 30.7698 38.9965 29.8684C40.6553 28.5332 41.0517 26.55 41.3042 24.5656L41.3778 23.0864H41.8105V31.0931H29.9438V30.6842H32.0128L32.0267 1.46864H30.0527V0.940186H37.1176V1.46864" fill="white"/>
<path d="M94.5373 30.9613C95.1347 30.9613 95.6419 30.4995 95.6419 29.8684C95.6419 29.243 95.1347 28.7812 94.5373 28.7812C93.9403 28.7812 93.433 29.243 93.433 29.8684C93.433 30.4995 93.9403 30.9613 94.5373 30.9613ZM93.653 29.8684C93.653 29.3501 94.0418 28.9615 94.5373 28.9615C95.0332 28.9615 95.422 29.3501 95.422 29.8684C95.422 30.3925 95.0332 30.7755 94.5373 30.7755C94.0418 30.7755 93.653 30.3925 93.653 29.8684ZM94.3065 29.9529H94.5262L94.8587 30.4995H95.0726L94.7177 29.9473C94.8979 29.9185 95.0445 29.8234 95.0445 29.5982C95.0445 29.3501 94.8924 29.243 94.5993 29.243H94.1205V30.4995H94.3065V29.9529ZM94.3065 29.7897V29.4009H94.5716C94.7009 29.4009 94.8416 29.4297 94.8416 29.5869C94.8416 29.7784 94.7009 29.7897 94.5373 29.7897H94.3065Z" fill="white"/>
</svg>
