<svg width="80" height="21" viewBox="0 0 80 21" fill="none" xmlns="http://www.w3.org/2000/svg">
<path d="M34.6301 20.222V0H30.7235V20.222H34.6301Z" fill="#4E68F6"/>
<path fill-rule="evenodd" clip-rule="evenodd" d="M16.186 16.4174V16.5271C16.186 18.9769 18.31 20.4764 20.6288 20.4764C22.0816 20.4764 23.5952 19.9792 24.6087 18.5624L24.645 18.5741C24.645 19.0829 24.645 19.7131 24.731 20.222H28.3722C28.2929 19.514 28.2563 18.8019 28.2626 18.0895V12.0069C28.2626 8.44511 25.8206 6.6642 22.5001 6.6642C19.7049 6.6642 16.9595 8.02078 16.5067 10.8445L19.925 11.6078C20.2176 10.493 21.1333 9.8026 22.3171 9.8026C23.7338 9.8026 24.4294 10.5901 24.4294 11.4496C24.4294 11.9836 24.1115 12.3584 23.3796 12.3584H22.0735C19.4694 12.3584 16.186 13.2556 16.186 16.4174ZM24.4013 14.7938V15.0968C24.4013 16.4174 23.4611 17.6535 21.7519 17.6571C20.9223 17.6571 20.1288 17.2535 20.1288 16.3086C20.1288 15.2667 21.2637 14.7938 22.0699 14.7938H24.4013Z" fill="#4E68F6"/>
<path d="M49.5716 12.8189V20.2221H45.6868V12.8638C45.6868 11.4344 45.1125 10.2954 43.5129 10.2954C41.9134 10.2954 41.1244 11.3535 41.1244 12.8638V20.2185H37.2423V6.97898H41.0674V8.71225H41.1036C41.8853 7.37904 43.4966 6.67602 45.0102 6.67602C46.6098 6.67602 48.1477 7.33049 48.905 8.78417C50.1622 7.39072 51.4194 6.67602 53.3487 6.67602C56.6203 6.67602 58.036 8.9298 58.036 11.9468V20.2221H54.1412V12.8189C54.1412 11.3805 53.5669 10.3017 51.9674 10.3017C50.3895 10.299 49.5716 11.3166 49.5716 12.8189Z" fill="#4E68F6"/>
<path fill-rule="evenodd" clip-rule="evenodd" d="M59.7388 16.4174V16.5271C59.7388 18.9769 61.8628 20.4764 64.1825 20.4764C65.6345 20.4764 67.1489 19.9792 68.1615 18.5624L68.1987 18.5741C68.1987 19.0829 68.1987 19.7131 68.2838 20.222H71.925C71.8457 19.514 71.8091 18.8019 71.8154 18.0895V12.0069C71.8154 8.44511 69.3734 6.6642 66.0538 6.6642C63.2577 6.6642 60.5124 8.02078 60.0595 10.8445L63.4778 11.6078C63.7704 10.493 64.6861 9.8026 65.87 9.8026C67.2866 9.8026 67.9822 10.5901 67.9822 11.4496C67.9822 11.9836 67.6652 12.3584 66.9324 12.3584H65.6263C63.0222 12.3584 59.7388 13.2556 59.7388 16.4174ZM67.9541 14.7938V15.0968C67.9541 16.4174 67.0139 17.6535 65.3048 17.6571C64.4751 17.6571 63.6816 17.2535 63.6816 16.3086C63.6816 15.2667 64.8165 14.7938 65.6227 14.7938H67.9541Z" fill="#4E68F6"/>
<path d="M73.6912 17.8468C73.6878 17.3153 73.8436 16.7947 74.1387 16.3511C74.4338 15.9075 74.855 15.5609 75.3489 15.3552C75.8428 15.1496 76.3871 15.0941 76.9128 15.196C77.4384 15.2978 77.9218 15.5523 78.3015 15.9271C78.6813 16.302 78.9403 16.7804 79.0457 17.3016C79.1511 17.8228 79.0982 18.3633 78.8937 18.8546C78.6891 19.3459 78.3422 19.7658 77.8968 20.0611C77.4515 20.3564 76.9278 20.5138 76.3922 20.5133C75.6792 20.5105 74.9961 20.2291 74.4906 19.7301C73.9851 19.231 73.6979 18.5545 73.6912 17.8468Z" fill="#4E68F6"/>
<path d="M10.4525 13.4075V0.0124804H14.3473V20.2228H10.5594V18.539H10.5105C9.26507 20.3559 7.25065 20.4772 6.36028 20.4772C2.48995 20.4772 0 17.1572 0 13.5828C0 10.226 2.57237 6.7127 6.42821 6.7127C7.02086 6.714 7.60959 6.80805 8.17272 6.99139L8.21891 7.00668C8.35022 7.04884 8.47607 7.10617 8.5939 7.17749C8.60403 7.18419 8.61408 7.19075 8.62411 7.19728C8.64904 7.21353 8.67377 7.22966 8.69897 7.24761C8.98454 7.4506 9.19745 7.73869 9.30676 8.07001C9.41608 8.40132 9.41609 8.75861 9.3068 9.08993C9.19751 9.42126 8.98462 9.70936 8.69906 9.91237C8.41351 10.1154 8.07016 10.2227 7.71893 10.2188L7.26605 10.2143C5.43459 10.2143 3.95819 11.57 3.95819 13.5819C3.95819 15.5939 5.43459 16.9631 7.25336 16.9631C9.26054 16.9631 10.5177 15.4366 10.4525 13.4075Z" fill="#4E68F6"/>
</svg>
