<svg width="84" height="32" viewBox="0 0 84 32" fill="none" xmlns="http://www.w3.org/2000/svg">
<g clip-path="url(#clip0_128_2371)">
<path d="M82.7656 31.2001H15.1035C6.71445 31.2001 -0.0917969 24.3938 -0.0917969 16.0047V0.800049H82.7656V31.2001Z" fill="white"/>
<path fill-rule="evenodd" clip-rule="evenodd" d="M71.3238 5.83718C71.3238 5.83718 72.199 5.7627 73.4839 5.7627C74.7595 5.7627 75.6906 5.82787 75.6906 5.82787L72.4225 24.8779C72.0128 24.8872 70.9979 24.9059 69.9085 24.9059H69.7037C68.754 24.9059 67.8974 24.8872 67.4784 24.8779L69.7875 11.2654L66.9384 12.3641C66.7522 12.1872 66.3518 11.7589 66.0259 11.1723C65.8397 10.8371 65.7373 10.4926 65.6814 10.2412C65.6766 10.2124 65.6718 10.1842 65.6672 10.1569C65.6538 10.0785 65.6418 10.0079 65.6349 9.95259L71.3238 5.83718ZM16.3249 19.0681H13.1499C12.8147 19.0681 12.5075 19.0495 12.2561 18.9657C11.9954 18.8819 11.7719 18.7329 11.595 18.5281C11.4181 18.3233 11.2878 18.0439 11.1946 17.6994C11.1108 17.3642 11.0736 16.9266 11.0643 16.4052V15.4369H15.0587V13.0254H11.0643V10.0273H16.1015V7.64369H8.26172V14.9434V16.4332C8.26172 17.5318 8.39207 18.4071 8.6714 19.0681C8.95072 19.7292 9.32316 20.232 9.7887 20.5765C10.2542 20.921 10.8036 21.1445 11.4274 21.2469C12.0512 21.3493 12.6937 21.4517 13.3734 21.4517C13.4386 21.4517 16.3249 21.4424 16.3249 21.4424V19.0681ZM35.7283 21.284C36.3242 21.5447 37.0225 21.6751 37.8326 21.6751C38.6333 21.6751 39.341 21.5447 39.9462 21.284C40.5514 21.014 41.0448 20.6509 41.4452 20.1853C41.8456 19.7105 42.1342 19.1611 42.3297 18.5373C42.5253 17.9042 42.6184 17.2245 42.6184 16.4982C42.6184 15.7627 42.5253 15.083 42.3297 14.4405C42.1342 13.7981 41.8456 13.2394 41.4452 12.7739C41.0448 12.299 40.5514 11.9359 39.9462 11.6659C39.341 11.3959 38.6426 11.2655 37.8326 11.2655C37.0225 11.2655 36.3242 11.3959 35.7283 11.6659C35.1324 11.9359 34.639 12.3083 34.2479 12.7739C33.8569 13.2487 33.5589 13.7981 33.3634 14.4405C33.1678 15.083 33.0654 15.772 33.0654 16.4982C33.0654 17.2338 33.1678 17.9135 33.3634 18.5373C33.5589 19.1704 33.8569 19.7198 34.2479 20.1853C34.639 20.6602 35.1324 21.0233 35.7283 21.284ZM39.3782 18.8073C39.0616 19.338 38.5495 19.608 37.8326 19.608C37.125 19.608 36.6129 19.338 36.3056 18.8073C35.989 18.2766 35.8308 17.5038 35.8308 16.5075C35.8308 15.5019 35.989 14.7385 36.3056 14.2077C36.6222 13.677 37.125 13.407 37.8326 13.407C38.5495 13.407 39.0616 13.677 39.3782 14.2077C39.6948 14.7385 39.8531 15.5113 39.8531 16.5075C39.8531 17.5131 39.6948 18.2766 39.3782 18.8073ZM27.004 11.5172C27.1996 11.4799 27.3765 11.452 27.5534 11.4334C27.7303 11.4148 28.5031 11.4148 28.6893 11.4427C28.8755 11.4706 29.0617 11.4986 29.2387 11.5358C29.2759 11.601 29.3131 11.6941 29.3411 11.8151C29.3486 11.8478 29.3568 11.8812 29.3652 11.915L29.3655 11.9162L29.3655 11.9164L29.3655 11.9164C29.388 12.0075 29.4113 12.1022 29.4249 12.1969C29.4497 12.3128 29.4672 12.4362 29.4839 12.5538L29.49 12.5972L29.5043 12.6959C29.5177 12.7877 29.5297 12.8703 29.5366 12.9324C29.8159 12.5321 30.1604 12.1782 30.5701 11.8617C30.9798 11.5451 31.4919 11.3868 32.1064 11.3868C32.2286 11.3868 32.3671 11.395 32.5143 11.4037L32.544 11.4054C32.7116 11.4148 32.8326 11.4427 32.9071 11.4613C32.9351 11.5917 32.9537 11.7406 32.963 11.8989L32.963 11.8991C32.9723 12.0666 32.9816 12.2342 32.9816 12.4203C32.9816 12.6345 32.9723 12.8766 32.9537 13.128C32.9351 13.3887 32.8978 13.6307 32.8513 13.8542C32.7116 13.8263 32.5533 13.817 32.3764 13.817H32.0598C31.8457 13.817 31.5943 13.8356 31.3336 13.8821C31.0636 13.9287 30.8122 14.0497 30.5608 14.236C30.3187 14.4315 30.1139 14.7201 29.9556 15.1019C29.7973 15.4836 29.7135 16.0236 29.7135 16.7126V21.4426C29.4807 21.4798 27.2275 21.4798 26.9854 21.4426V11.5172H27.004ZM16.9756 11.517C17.4411 11.4426 19.2474 11.4426 19.7037 11.517V16.787C19.7037 17.3084 19.7409 17.746 19.8247 18.0812C19.9085 18.4164 20.0389 18.6864 20.2065 18.8913C20.3834 19.0868 20.5975 19.2264 20.8489 19.3102C21.1003 19.394 21.4076 19.4313 21.7521 19.4313C22.2269 19.4313 22.6273 19.3847 22.9439 19.3009V11.517C23.4094 11.4426 25.1971 11.4426 25.6533 11.517V21.4517C25.2436 21.5914 22.6552 21.6845 21.929 21.6845C21.2772 21.6845 20.6441 21.6287 20.0482 21.5355C19.443 21.4331 18.9216 21.219 18.4653 20.8838C18.0091 20.5486 17.646 20.0644 17.376 19.422C17.1059 18.7795 16.9756 17.9322 16.9756 16.8615V11.517ZM43.5499 11.4893C43.7268 11.4521 45.3934 11.4334 45.7565 11.5079C45.7938 11.5731 45.831 11.6662 45.859 11.7872C45.8694 11.8325 45.8811 11.879 45.8932 11.9269L45.8932 11.927L45.8933 11.9271L45.8933 11.9273C45.9135 12.0073 45.9346 12.091 45.9521 12.1783C45.98 12.318 46.0079 12.4576 46.0266 12.588L46.0408 12.6865C46.0542 12.7783 46.0662 12.861 46.0731 12.9232C46.1848 12.7183 46.3338 12.5135 46.4921 12.318C46.6597 12.1224 46.8645 11.9455 47.0973 11.7872C47.3394 11.629 47.6001 11.5079 47.8981 11.4148C48.196 11.3217 48.5219 11.2751 48.8757 11.2751C49.425 11.2751 49.9464 11.3776 50.4213 11.5824C50.9055 11.7872 51.3245 12.0945 51.6783 12.5135C52.0414 12.9325 52.3114 13.4539 52.5162 14.0777C52.7118 14.7015 52.8142 15.4464 52.8142 16.303C52.8142 17.1317 52.6931 17.8859 52.4511 18.5376C52.209 19.1987 51.8552 19.7573 51.3989 20.2229C50.9334 20.6884 50.3747 21.0422 49.7044 21.2936C49.034 21.545 48.2798 21.6661 47.4325 21.6661C47.2184 21.6661 47.0042 21.6568 46.7901 21.6381C46.5759 21.6195 46.399 21.6009 46.2593 21.573V24.8597C46.0173 24.897 43.7733 24.897 43.5312 24.8597V11.4893H43.5499ZM46.278 19.3384C46.6225 19.4408 47.0228 19.4966 47.4697 19.4966C48.2612 19.4966 48.8757 19.2359 49.2947 18.7238C49.7137 18.2117 49.9278 17.4389 49.9278 16.3961C49.9278 15.9958 49.8999 15.6326 49.8347 15.2881C49.7695 14.9529 49.6578 14.655 49.5088 14.4129C49.3599 14.1708 49.1643 13.9753 48.9222 13.8356C48.6895 13.696 48.3915 13.6215 48.047 13.6215C47.7305 13.6215 47.4511 13.6867 47.2277 13.8077C47.0042 13.9287 46.818 14.0963 46.6783 14.3105C46.5387 14.5246 46.4362 14.7667 46.3711 15.046C46.3059 15.3254 46.278 15.6326 46.278 15.9492V19.3384ZM61.6402 12.6436C62.022 13.0626 62.3013 13.5653 62.4968 14.1519C62.6924 14.7385 62.7855 15.3623 62.7762 16.0234C62.7762 16.2655 62.7668 16.5076 62.7482 16.7404C62.7296 16.9731 62.711 17.1593 62.6831 17.299L57.3665 17.3083C56.9475 17.2897 56.4634 17.2059 56.2679 16.8241C56.2585 16.8055 56.212 16.8055 56.2027 16.8335C55.9978 17.5783 56.4727 18.5467 57.1152 18.9843C57.6366 19.3381 58.2418 19.5057 59.0332 19.5057C59.4615 19.5057 59.9084 19.4684 60.3646 19.3846C60.8116 19.3008 61.2492 19.1891 61.6589 19.0308C61.7985 19.2822 61.9196 19.5988 62.022 19.9526C62.1244 20.3157 62.1896 20.6975 62.1989 21.1072C61.2026 21.4889 60.076 21.6844 58.819 21.6844C57.8973 21.6844 57.1058 21.5634 56.4448 21.3027C55.7837 21.042 55.253 20.6882 54.834 20.2319C54.415 19.785 54.1077 19.2357 53.9122 18.6118C53.7167 17.9787 53.6143 17.299 53.6143 16.5541C53.6143 15.8186 53.7167 15.1389 53.9215 14.4964C54.1264 13.854 54.4336 13.2953 54.834 12.8205C55.2344 12.3456 55.7371 11.9732 56.333 11.6939C56.9289 11.4238 57.6272 11.2842 58.4187 11.2842C59.1077 11.2842 59.7222 11.4052 60.2622 11.6473C60.8023 11.8894 61.2585 12.2246 61.6402 12.6436ZM56.9196 13.9005C56.5844 14.2543 56.3889 14.7664 56.3237 15.4182H60.2064C60.1784 14.8037 60.0108 14.3102 59.6943 13.9285C59.387 13.5467 58.9494 13.3605 58.3814 13.3605C57.739 13.3605 57.2548 13.5374 56.9196 13.9005Z" fill="#4E68F6"/>
</g>
<defs>
<clipPath id="clip0_128_2371">
<rect width="83.2" height="30.4" fill="white" transform="translate(0 0.800049)"/>
</clipPath>
</defs>
</svg>
