<svg width="74" height="32" viewBox="0 0 74 32" fill="none" xmlns="http://www.w3.org/2000/svg">
<path fill-rule="evenodd" clip-rule="evenodd" d="M52.4833 27.1827C52.5844 27.0588 52.682 26.9393 52.7753 26.831C52.7753 26.831 52.7242 27.3902 52.8084 27.7172C52.895 28.043 52.9403 28.3909 52.9403 28.3909C51.6288 30.0525 50.1089 31.7722 47.8642 31.7722C46.0394 31.7722 44.1687 31.2681 45.8658 24.6408L51.1212 4.06663C51.1212 2.47972 49.9199 2.53631 48.7488 2.59147C48.641 2.59655 48.5334 2.60162 48.427 2.60539V1.3689C51.4233 1.09768 54.4236 0.640602 57.4158 0L50.5904 25.7379C50.2437 26.8745 49.7396 28.5611 50.8152 28.5268C51.4033 28.5051 51.9866 27.7908 52.4833 27.1827ZM69.2446 26.2949C69.015 27.1868 68.6957 28.4267 69.3696 28.5715C70.2697 28.7652 71.289 27.3151 72.0227 26.2714C72.2789 25.9068 72.5003 25.5918 72.6696 25.4138L73.5838 26.1014C72.1916 28.2962 69.8064 31.8169 67.0691 31.8169C64.5646 31.8169 63.2194 28.8343 64.7389 26.0136C63.3905 28.4807 61.0127 31.7693 58.0351 31.7693C54.5208 31.7693 53.1257 29.0286 53.1257 25.6467C53.1257 20.1147 58.9469 10.2391 64.8093 10.2391C66.8978 10.2391 67.5036 11.2445 68.0239 13.3486L68.8057 10.9727L73.5838 10.6956L69.3696 25.782C69.3394 25.9269 69.2943 26.1021 69.245 26.2933L69.2447 26.2946L69.2446 26.2949ZM58.4277 25.8738C58.4277 27.1074 58.9475 28.5715 60.2926 28.5715C64.0276 28.5715 67.0691 17.7364 67.0686 14.6728C67.0686 13.8057 66.9803 12.2033 65.289 12.2033C61.9885 12.2033 58.4277 23.0854 58.4277 25.8738ZM44.8566 26.9639C44.209 27.8345 43.2002 28.8172 42.5503 28.5721C41.8313 28.2982 42.1451 27.2218 42.3909 26.3784C42.4553 26.1576 42.515 25.9529 42.5503 25.7826L46.7598 10.6962L41.9817 10.9733L41.2034 13.3493C40.6848 11.2451 40.0715 10.2397 37.99 10.2397C32.1276 10.2397 26.3064 20.1154 26.3064 25.6473C26.3064 29.0292 27.698 31.7699 31.214 31.7699C34.1924 31.7699 36.5718 28.4732 37.9249 26.0052C36.3955 28.8279 37.7426 31.8169 40.2486 31.8169C41.8185 31.8169 43.4395 30.487 44.6614 29.0861C44.6614 29.0861 44.6173 28.4769 44.6399 28.1005C44.6591 27.719 44.8566 26.9639 44.8566 26.9639ZM33.4732 28.5715C32.1276 28.5715 31.6049 27.1074 31.6049 25.8738C31.6049 23.0855 35.1668 12.2034 38.4691 12.2034C40.1615 12.2034 40.2486 13.8057 40.2486 14.6729C40.2486 17.7365 37.2094 28.5715 33.4732 28.5715ZM15.0314 15.3872H29.2554C29.2554 15.3872 26.6482 18.2725 25.8032 22.744C25.0273 26.8606 25.7225 28.5431 25.7225 28.5431L24.2235 29.6692C21.2295 31.1322 17.1449 31.9848 13.8484 31.9999C9.94728 32.0179 1.00963 29.7441 0.993951 19.8871C0.982336 14.4777 2.81528 7.2673 10.1982 2.69539C12.6276 1.19 16.2354 0.27295 19.0563 0.27295C21.1401 0.27295 22.5293 0.468674 24.5139 1.00474C25.094 1.1602 25.6015 1.31864 26.0583 1.46127C27.0146 1.75984 27.749 1.98915 28.4643 1.97696L27.9806 10.8676L26.1685 10.8548C26.431 6.73879 24.1834 2.04259 19.9251 2.04259C13.3669 2.04259 7.93429 11.3589 7.93429 21.2322C7.93429 23.7929 8.3298 30.3522 14.6702 30.3522C15.8422 30.3522 17.5788 29.9869 18.4912 29.1657C18.9778 28.7402 19.17 27.8563 19.6695 25.5589C19.9759 24.1496 20.3979 22.2084 21.0745 19.5148C21.0869 19.3826 21.1109 19.2646 21.1348 19.1474C21.1935 18.8594 21.2512 18.5761 21.1331 18.0989C20.8392 16.9359 17.6713 16.7537 15.9331 16.6537C15.5316 16.6306 15.2064 16.6119 15.0105 16.5865L15.0314 15.3872Z" fill="white"/>
</svg>
