<svg width="102" height="20" viewBox="0 0 102 20" fill="none" xmlns="http://www.w3.org/2000/svg">
<g clip-path="url(#clip0_128_2382)">
<path d="M6.45066 4.44201V16.3325C6.45066 17.4273 6.7875 17.9999 8.21908 17.9999H9.93697C11.8907 17.9999 12.8001 17.242 13.4738 15.8104L14.097 14.4294L15.1075 14.7157L14.3496 19.2462H0.387497V18.2357C2.88013 17.7136 2.96434 17.6125 2.96434 16.6525V4.37464C2.96434 3.36411 2.81276 3.33043 0.387497 2.84201V1.83148H9.12855V2.84201C6.58539 3.34727 6.45066 3.3978 6.45066 4.44201ZM26.038 9.69675C26.038 11.3136 25.1286 13.1325 19.0654 13.4188C19.217 15.9115 20.497 17.5283 22.6022 17.5283C23.7475 17.5283 24.8422 17.0567 25.8022 16.1473L26.3749 16.821C25.2801 18.4378 23.4612 19.5999 21.3559 19.5999C17.9707 19.5999 15.5286 17.1578 15.5286 13.3852C15.5286 9.71359 18.4928 6.7999 21.9791 6.7999C24.8928 6.68201 26.038 8.45043 26.038 9.69675ZM21.8275 7.74306C19.9243 7.74306 19.0991 9.7978 19.0149 12.3746C23.1749 11.7515 23.3096 10.1852 23.3096 9.27569C23.3601 8.21464 22.5012 7.74306 21.8275 7.74306ZM31.2422 19.5325C28.2275 19.5325 27.0822 18.3367 27.0822 17.0399C27.0822 16.0799 28.0422 15.221 29.2717 15.4567L29.6086 15.8441C28.8507 17.1746 29.4233 18.421 31.377 18.421C32.6233 18.421 33.5328 17.7473 33.5328 16.7031C33.5328 15.5073 32.5222 14.9852 30.9559 14.362C28.7665 13.4525 27.4191 12.4588 27.4191 10.4041C27.4191 8.3999 29.1875 6.68201 31.9159 6.68201C34.7791 6.68201 36.0759 8.06306 36.0759 9.20832C36.0759 10.1683 35.217 11.0778 33.7854 10.741L33.4991 10.3031C34.4086 9.10727 33.937 7.67569 31.9665 7.67569C30.8212 7.67569 30.0128 8.3999 30.0128 9.39359C30.0128 10.5388 31.2591 11.1115 32.6401 11.5831C34.8296 12.341 36.598 13.3515 36.598 15.5915C36.6486 17.9662 35.0149 19.5325 31.2422 19.5325ZM39.2759 1.86517H53.2212L53.3728 6.44622H52.4128L51.9412 5.01464C51.4696 3.58306 50.4591 3.14516 48.977 3.14516H45.3391V9.64622H48.9265C49.6844 9.64622 49.7349 9.49464 50.257 7.25464H51.2675V13.5199H50.257C49.7349 11.3641 49.6844 11.0273 48.9265 11.0273H45.3391V16.3325C45.3391 17.4273 45.6759 17.9999 47.1075 17.9999H48.8254C50.7791 17.9999 51.6886 17.242 52.3622 15.8104L52.9854 14.4294L53.9959 14.7157L53.1875 19.2462H39.2928V18.2862C41.7854 17.7641 41.8696 17.6631 41.8696 16.7031V4.37464C41.8696 3.36411 41.718 3.33043 39.2928 2.84201V1.86517H39.2759ZM64.7917 16.1473L65.3644 16.821C64.2696 18.4378 62.4507 19.5494 60.3454 19.5494C56.9601 19.5494 54.518 17.1073 54.518 13.3346C54.518 9.66306 57.2465 6.74938 60.7833 6.74938C63.5622 6.74938 64.8422 8.28201 64.8422 9.4778C64.8422 10.4883 64.2191 11.482 62.4001 11.1957L62.1138 10.7241C62.5854 9.57885 62.7875 7.7599 60.817 7.7599C58.8128 7.7599 58.0044 10.0504 58.0044 12.8799C58.0044 15.6589 59.3012 17.562 61.5412 17.562C62.737 17.4778 63.7812 17.0567 64.7917 16.1473ZM73.9033 17.8146V11.0778C73.9033 9.64622 73.3812 9.02306 72.3707 9.02306C70.7875 9.02306 69.457 11.5157 69.457 15.1873V19.1957H66.1559V2.94306C66.1559 1.98306 66.0549 1.93253 64.4886 1.41043V0.399902H69.6086C69.457 1.44411 69.457 9.61253 69.457 10.1515H69.5075C70.3665 8.09674 71.8486 6.66517 73.9538 6.66517C75.8233 6.66517 77.1538 7.96201 77.1538 10.4378V16.5515C77.1538 17.6967 77.3391 17.7978 79.057 18.2188V19.2294C77.5749 19.381 76.3791 19.4652 75.6717 19.4652C74.5265 19.5325 73.9033 19.0104 73.9033 17.8146ZM85.0865 18.4883C87.2759 18.4883 87.8654 15.9115 87.8654 13.2841C87.8654 10.421 87.4781 7.74306 85.0865 7.74306C82.897 7.74306 82.3075 10.3199 82.3075 12.9473C82.2738 15.7599 82.7454 18.4883 85.0865 18.4883ZM84.8001 19.5325C81.2633 19.5325 78.7875 17.141 78.7875 13.5199C78.7875 9.41043 81.3644 6.68201 85.3391 6.68201C88.8759 6.68201 91.3517 9.02306 91.3517 12.6946C91.3517 16.821 88.8086 19.5325 84.8001 19.5325ZM96.118 19.5325C93.1033 19.5325 91.958 18.3367 91.958 17.0399C91.958 16.0799 92.918 15.221 94.1475 15.4567L94.4844 15.8441C93.7265 17.1746 94.2991 18.421 96.2528 18.421C97.4991 18.421 98.4086 17.7473 98.4086 16.7031C98.4086 15.5073 97.398 14.9852 95.8317 14.362C93.6423 13.4525 92.2949 12.4588 92.2949 10.4041C92.2949 8.3999 94.0633 6.68201 96.7412 6.68201C99.6044 6.68201 100.901 8.06306 100.901 9.20832C100.901 10.1683 100.042 11.0778 98.6107 10.741L98.3244 10.3031C99.2338 9.10727 98.7959 7.67569 96.7917 7.67569C95.6465 7.67569 94.838 8.3999 94.838 9.39359C94.838 10.5388 96.0338 11.1115 97.4654 11.5831C99.6549 12.341 101.423 13.3515 101.423 15.5915C101.524 17.9662 99.9075 19.5325 96.118 19.5325Z" fill="white"/>
</g>
<defs>
<clipPath id="clip0_128_2382">
<rect width="101.6" height="19.2" fill="white" transform="translate(0.199997 0.399902)"/>
</clipPath>
</defs>
</svg>
