<svg width="113" height="22" viewBox="0 0 113 22" fill="none" xmlns="http://www.w3.org/2000/svg">
<g clip-path="url(#clip0_128_2390)">
<path fill-rule="evenodd" clip-rule="evenodd" d="M39.7281 0.801523L40.3922 0.615535C40.5816 0.543446 40.7927 0.475683 41.0258 0.412245C41.2588 0.348807 41.521 0.265184 41.8122 0.161377V16.1391L40.7593 16.4548C40.3893 16.5644 40.0048 16.6884 39.6057 16.8268L38.2556 17.2593L37.8187 17.3934V15.5897C37.3475 16.1467 36.7755 16.6116 36.132 16.9609C35.5776 17.2466 34.9613 17.395 34.3362 17.3934C33.7652 17.3975 33.202 17.2608 32.6977 16.9955C32.1882 16.7294 31.7414 16.3593 31.3869 15.9098C30.9939 15.4163 30.6975 14.8545 30.513 14.2532C30.3003 13.5816 30.1957 12.881 30.2028 12.1771C30.1962 11.2889 30.3623 10.4079 30.6922 9.5819C30.9927 8.80501 31.4373 8.09062 32.003 7.47546C32.5541 6.88403 33.2178 6.40628 33.9561 6.06974C34.722 5.72218 35.5561 5.54642 36.3986 5.55504C36.6256 5.5522 36.8525 5.57103 37.0758 5.61127C37.3335 5.66218 37.5864 5.73452 37.8317 5.82753V1.31624L38.0546 1.26433C38.2963 1.20666 38.5774 1.13313 38.8979 1.04374L39.7281 0.801523ZM37.1283 15.819C37.3905 15.6494 37.6261 15.4425 37.8274 15.2048L37.8405 7.05161C37.85 6.72693 37.7362 6.41056 37.5215 6.1649C37.4136 6.0519 37.2825 5.96297 37.1371 5.90404C36.9917 5.84512 36.8352 5.81756 36.6782 5.82321C35.9529 5.82321 35.4009 6.3062 35.0222 7.27217C34.5969 8.65134 34.4107 10.0919 34.4717 11.5326C34.4717 13.107 34.6173 14.2417 34.9086 14.9366C35.0191 15.2477 35.2271 15.5157 35.5021 15.7016C35.7772 15.8875 36.105 15.9817 36.4379 15.9704C36.6773 15.9789 36.915 15.9268 37.1283 15.819ZM9.05044 11.5629L5.30151 2.09911H0.600037V17.0949H0.897156V3.0723L6.89636 17.8389L12.8868 2.7306V17.0949H17.3567V2.09911H12.8431L9.05044 11.5629ZM29.5603 8.42276C29.5585 7.98373 29.4953 7.54705 29.3725 7.12519C29.2322 6.74921 28.9904 6.4185 28.6734 6.16927C28.0779 5.73668 27.3483 5.52398 26.611 5.56805C26.2548 5.56961 25.8989 5.58982 25.5449 5.62861C24.9655 5.69173 24.3906 5.78996 23.8234 5.92273C22.8201 6.15682 21.8435 6.4916 20.9089 6.9219C19.1612 7.72059 18.2873 8.66495 18.2873 9.75496C18.2768 9.96451 18.3105 10.1739 18.3864 10.3698C18.4622 10.5657 18.5784 10.7438 18.7277 10.8928C18.8769 11.0417 19.0558 11.1583 19.2532 11.2349C19.4504 11.3116 19.6617 11.3467 19.8734 11.338C20.169 11.346 20.4631 11.2946 20.738 11.1868C21.0129 11.079 21.2628 10.9171 21.4726 10.7108C21.9291 10.2573 22.2078 9.65789 22.2591 9.01967L22.3465 8.33623C22.388 7.94929 22.4715 7.56795 22.5955 7.19871C22.6787 6.9446 22.8297 6.71747 23.0325 6.54122C23.1927 6.41712 23.3729 6.32059 23.5655 6.2558C23.7624 6.1758 23.9732 6.13466 24.186 6.13467C24.453 6.12756 24.7149 6.20877 24.9301 6.36539C25.1454 6.52207 25.3017 6.74529 25.3745 6.99976C25.4829 7.54085 25.5341 8.0917 25.5274 8.64333V10.3994C23.5423 10.9259 21.6203 11.6626 19.7947 12.5967C18.749 13.208 18.2261 13.9894 18.2261 14.941C18.2181 15.2883 18.2974 15.6322 18.4568 15.9418C18.6161 16.2513 18.8507 16.5167 19.1393 16.7144C19.8217 17.1933 20.6457 17.4337 21.4814 17.3978C22.4484 17.4239 23.4002 17.1551 24.2078 16.6278C24.4545 16.4766 24.6819 16.2965 24.8851 16.0915C25.1403 15.8361 25.3713 15.5581 25.5754 15.2611C25.8668 16.7028 26.6212 17.4237 27.8388 17.4237C28.4475 17.4163 29.046 17.2682 29.5865 16.9912L29.9579 16.7922C29.9579 16.7922 29.5865 16.3597 29.5865 15.1962L29.5603 8.42276ZM25.5449 14.2446C25.5599 14.6645 25.4322 15.0772 25.1822 15.4168C25.0618 15.5608 24.909 15.6749 24.736 15.7501C24.563 15.8252 24.3746 15.8591 24.186 15.8493C23.9892 15.8555 23.7943 15.809 23.622 15.7146C23.4497 15.6201 23.3064 15.4814 23.2072 15.313C22.952 14.8377 22.8341 14.3019 22.8664 13.7645C22.85 13.2807 22.9364 12.7988 23.1199 12.3501C23.2866 11.9685 23.5593 11.6415 23.9063 11.4072C24.1009 11.2505 24.3191 11.1249 24.553 11.0353C24.7657 10.9545 25.0905 10.8377 25.5274 10.6849L25.5449 14.2446ZM54.3131 0.161377C54.0218 0.265184 53.7596 0.348807 53.5266 0.412245C53.2936 0.475683 53.0795 0.542004 52.8843 0.611209L52.2202 0.7972L51.39 1.03941C51.0696 1.1288 50.7884 1.20233 50.5467 1.26001L50.3238 1.31191V5.82753C50.0784 5.73452 49.8256 5.66218 49.5679 5.61126C49.3445 5.57127 49.1177 5.55244 48.8907 5.55503C48.0523 5.54969 47.2229 5.72688 46.4613 6.07407C45.723 6.41062 45.0592 6.88836 44.5082 7.47979C43.9423 8.09483 43.4977 8.80928 43.1974 9.58624C42.8675 10.4122 42.7014 11.2933 42.708 12.1814C42.7008 12.8852 42.8056 13.5858 43.0182 14.2575C43.2025 14.8589 43.4989 15.4208 43.8921 15.9141C44.2466 16.3636 44.6934 16.7336 45.2029 16.9998C45.7073 17.265 46.2704 17.4018 46.8415 17.3977C47.4666 17.3997 48.0829 17.2513 48.6373 16.9652C49.281 16.6163 49.853 16.1512 50.3238 15.5941V17.3977L50.7608 17.2637C51.256 17.1108 51.7061 16.9666 52.1109 16.8311C52.5158 16.6956 52.9004 16.5716 53.2644 16.4591L54.3175 16.1434L54.3131 0.161377ZM50.3238 15.2048C50.1224 15.4423 49.8868 15.6492 49.6247 15.819C49.4113 15.9266 49.1738 15.9787 48.9344 15.9704C48.6015 15.9817 48.2737 15.8875 47.9986 15.7016C47.7236 15.5157 47.5156 15.2477 47.4051 14.9366C47.1138 14.2417 46.9682 13.107 46.9682 11.5326C46.9019 10.0943 47.0821 8.65525 47.5012 7.27651C47.8799 6.31054 48.4319 5.82753 49.1572 5.82753C49.3143 5.82189 49.4707 5.84945 49.6161 5.90837C49.7615 5.96729 49.8926 6.05622 50.0005 6.16923C50.2152 6.41483 50.329 6.73126 50.3195 7.05594L50.3238 15.2048ZM63.0912 12.9081C63.3706 12.3631 63.6085 11.883 63.8036 11.4677L66.6174 5.85349H66.9582L60.6095 18.4445C60.1807 19.4163 59.5511 20.2886 58.7612 21.0051C58.1558 21.5278 57.3799 21.8166 56.5765 21.8182C55.8813 21.8473 55.1993 21.6243 54.6583 21.1911C54.4195 20.988 54.2297 20.7345 54.1027 20.4494C53.9757 20.1643 53.9147 19.8546 53.9243 19.5431C53.9169 19.286 53.9636 19.0302 54.0614 18.792C54.1591 18.5537 54.3059 18.3381 54.4923 18.159C54.6789 17.9793 54.8999 17.8382 55.1422 17.7439C55.3845 17.6496 55.6433 17.6039 55.9036 17.6097C56.2517 17.5996 56.5961 17.6834 56.8998 17.8519C57.2447 18.0675 57.542 18.35 57.7737 18.6824C57.8375 18.7525 57.8973 18.8262 57.9528 18.903C57.9972 18.9608 58.0454 19.0157 58.097 19.0673C58.1907 19.1872 58.3095 19.2856 58.4453 19.3558C58.5811 19.426 58.7306 19.4663 58.8835 19.4739C59.2159 19.4622 59.5301 19.3207 59.7574 19.0803C60.1155 18.6957 60.4104 18.2579 60.6313 17.7827L60.8849 17.2896L55.2045 5.84917H59.5739L60.8105 8.32756C60.8542 8.43571 60.9108 8.54819 60.9723 8.66061L63.0912 12.9081ZM77.5362 6.47637C77.2941 6.16609 76.9684 5.92933 76.5969 5.79295C76.1585 5.62462 75.6912 5.54235 75.2203 5.55074C74.8621 5.54858 74.505 5.58484 74.1545 5.65887L74.0323 5.68914C73.7288 5.76754 73.4356 5.88076 73.158 6.02652C72.8021 6.2095 72.4643 6.42531 72.1488 6.67099C71.761 6.98657 71.3943 7.32757 71.0523 7.69175V5.55506L70.1436 5.86216L69.4313 6.0914C69.2976 6.13926 69.1525 6.18529 69.014 6.22949C68.9393 6.25321 68.8664 6.2764 68.7978 6.29904L68.0897 6.49799L67.3472 6.73156L67.0281 6.81376V17.095H71.0523V8.06376C71.4985 7.59487 72.1036 7.30529 72.7521 7.25056C72.9695 7.2517 73.1833 7.3083 73.3723 7.41494C73.5506 7.50262 73.6945 7.64539 73.783 7.82152C73.842 7.92207 73.8872 8.02962 73.9185 8.14162C73.9522 8.28373 73.9745 8.42842 73.9841 8.57414C73.9986 8.75581 74.0088 8.99366 74.0148 9.28781V9.55595V17.095H78.0432V8.49628C78.0372 8.12181 77.9993 7.74847 77.9294 7.38032C77.8704 7.05311 77.7361 6.74379 77.5362 6.47637ZM89.1156 13.9114C89.3438 13.7688 89.5497 13.594 89.7268 13.3924C89.9303 13.144 90.1139 12.8808 90.2777 12.6052L90.4788 12.6917C90.3446 13.0522 90.2223 13.3564 90.1115 13.6043C90.0206 13.8289 89.917 14.0484 89.8014 14.2618C89.6906 14.4608 89.5726 14.6511 89.4474 14.8327L89.0102 15.4167C88.4984 16.0421 87.8504 16.5449 87.114 16.8873C86.3445 17.2312 85.5075 17.404 84.6627 17.3933C83.851 17.4032 83.0453 17.2563 82.2902 16.9608C81.5779 16.687 80.9281 16.2736 80.3808 15.7454C79.837 15.2265 79.4071 14.6022 79.1181 13.9114C78.8158 13.185 78.6671 12.4047 78.6815 11.619C78.6755 10.8079 78.8375 10.0042 79.1572 9.2574C79.4643 8.53777 79.9093 7.88408 80.4681 7.33269C81.0329 6.78058 81.6989 6.34016 82.4299 6.03507C83.869 5.45261 85.472 5.40499 86.9436 5.90099C87.5566 6.11585 88.1226 6.44307 88.6128 6.86554C89.1101 7.29228 89.5178 7.81092 89.8147 8.39235C90.1302 9.0219 90.3325 9.70101 90.4132 10.3993H82.8935C82.908 13.2021 84.1719 14.6035 86.6859 14.6035C87.5488 14.6296 88.3984 14.3876 89.1156 13.9114ZM84.8289 5.8707C84.1912 5.8707 83.7107 6.23401 83.3873 6.96068C83.0049 7.96886 82.8297 9.04219 82.8713 10.1182H86.3668V9.46936V8.98493C86.3613 8.8465 86.3541 8.71529 86.3451 8.5913C86.3366 8.46732 86.3246 8.33178 86.3101 8.18473C86.3095 7.5703 86.1596 6.96502 85.873 6.42001C85.7652 6.244 85.611 6.1001 85.4274 6.00344C85.2437 5.90677 85.0366 5.86092 84.8289 5.8707ZM97.9455 9.88027L96.4034 9.38723C94.9703 8.92586 94.2537 8.24531 94.2537 7.34563C94.2459 7.14584 94.2814 6.94677 94.3567 6.76119C94.432 6.57566 94.5458 6.40785 94.6903 6.26863C94.839 6.12717 95.0142 6.01613 95.2063 5.9419C95.3984 5.86767 95.6031 5.83173 95.8091 5.83612C96.2107 5.84347 96.6039 5.94897 96.9538 6.14322C97.3777 6.36365 97.7667 6.64491 98.1075 6.97802C98.5067 7.37315 98.8644 7.80797 99.1733 8.2756C99.5231 8.78351 99.8158 9.32731 100.048 9.89761H100.284L100.048 6.21245C99.3317 5.99779 98.6018 5.83303 97.863 5.71934C97.2476 5.61649 96.625 5.56154 96.0012 5.55498C95.3466 5.54893 94.6945 5.64526 94.0701 5.84045C93.5143 6.00596 92.9922 6.26652 92.528 6.61035C92.1113 6.92937 91.7632 7.32793 91.5055 7.7825C91.255 8.23447 91.1261 8.74214 91.1298 9.25746C91.1261 9.65753 91.2086 10.0538 91.3706 10.4205C91.532 10.7871 91.7705 11.1159 92.0691 11.3855C92.6893 11.9795 93.728 12.5216 95.184 13.0118L96.2944 13.3924C96.9086 13.5574 97.4794 13.8526 97.9678 14.2575C98.1243 14.4195 98.246 14.6109 98.3261 14.8204C98.4067 15.0299 98.4435 15.2533 98.4351 15.4773C98.4465 15.6917 98.414 15.9064 98.3387 16.108C98.2634 16.3095 98.1478 16.4937 97.9985 16.6494C97.8389 16.798 97.6504 16.913 97.4445 16.9874C97.2386 17.0617 97.02 17.0939 96.8008 17.0819C96.286 17.0757 95.7796 16.9482 95.3243 16.7099C94.7902 16.4282 94.3013 16.0697 93.8738 15.6459C93.3601 15.1379 92.9019 14.5784 92.5057 13.9763C92.051 13.2659 91.6536 12.5211 91.3176 11.7488H91.0858L91.3176 16.2169L91.7849 16.3942C91.9114 16.4461 92.0468 16.4937 92.1871 16.5369C92.3268 16.5802 92.4665 16.6235 92.6237 16.6667L93.2445 16.844C93.6377 16.968 93.9785 17.0632 94.267 17.1295C94.5554 17.1958 94.8215 17.2463 95.0666 17.2809C95.2858 17.3221 95.5074 17.351 95.7302 17.3674C95.9373 17.3818 96.1487 17.389 96.3643 17.389C97.0495 17.396 97.7311 17.2923 98.3827 17.0819C98.9674 16.8985 99.5105 16.6047 99.982 16.2169C100.421 15.8647 100.777 15.4219 101.026 14.9192C101.28 14.4111 101.408 13.851 101.402 13.2843C101.411 12.9093 101.344 12.5362 101.203 12.1881C101.061 11.84 100.85 11.5242 100.581 11.26C99.8194 10.6078 98.9186 10.1359 97.9455 9.88027ZM108.704 9.88027C109.674 10.1454 110.57 10.6262 111.325 11.286C111.598 11.5415 111.816 11.8492 111.965 12.1905C112.115 12.5317 112.192 12.8994 112.194 13.2713C112.201 13.838 112.073 14.3982 111.818 14.9063C111.57 15.4089 111.214 15.8517 110.774 16.2039C110.303 16.5917 109.76 16.8854 109.175 17.0689C108.523 17.2793 107.842 17.383 107.157 17.376C106.941 17.376 106.73 17.3688 106.523 17.3544C106.3 17.338 106.078 17.3091 105.859 17.2679C105.614 17.2333 105.348 17.1828 105.059 17.1165C104.771 17.0502 104.43 16.9551 104.037 16.831L103.417 16.6537C103.259 16.6104 103.119 16.5672 102.979 16.5239C102.84 16.4807 102.704 16.4331 102.577 16.3812L102.11 16.2039L101.878 11.7359H102.11C102.447 12.5081 102.844 13.2529 103.299 13.9634C103.691 14.5772 104.148 15.1484 104.662 15.6675C105.089 16.0913 105.578 16.4499 106.112 16.7315C106.568 16.9698 107.074 17.0973 107.589 17.1035C107.808 17.1155 108.027 17.0833 108.233 17.0089C108.439 16.9346 108.627 16.8196 108.787 16.671C108.936 16.5153 109.052 16.3311 109.127 16.1295C109.202 15.928 109.235 15.7134 109.223 15.4988C109.232 15.2749 109.195 15.0515 109.115 14.842C109.034 14.6325 108.912 14.4411 108.756 14.2791C108.268 13.8742 107.697 13.579 107.083 13.414L105.972 13.0334C104.516 12.5432 103.477 12.0011 102.857 11.4071C102.56 11.1368 102.324 10.8076 102.163 10.441C102.003 10.0744 101.922 9.67855 101.926 9.27908C101.923 8.76376 102.052 8.25609 102.302 7.80411C102.56 7.34955 102.908 6.95093 103.325 6.63197C103.789 6.28814 104.311 6.02756 104.867 5.86206C105.492 5.66688 106.143 5.57053 106.798 5.57659C107.414 5.57711 108.029 5.62484 108.638 5.71932C109.377 5.83301 110.107 5.99778 110.822 6.21239L111.059 9.89755H110.822C110.591 9.32731 110.298 8.78345 109.949 8.2756C109.639 7.80797 109.282 7.37315 108.882 6.97796C108.542 6.64491 108.153 6.36359 107.729 6.14321C107.379 5.94895 106.986 5.84346 106.584 5.83611C106.378 5.83171 106.173 5.86766 105.981 5.94188C105.789 6.01611 105.614 6.12716 105.466 6.26863C105.315 6.4052 105.195 6.57175 105.115 6.75745C105.035 6.9431 104.994 7.14361 104.998 7.34563C104.998 8.24531 105.719 8.9258 107.161 9.38717L108.704 9.88027Z" fill="white"/>
</g>
<defs>
<clipPath id="clip0_128_2390">
<rect width="112" height="21.6774" fill="white" transform="translate(0.600037 0.161377)"/>
</clipPath>
</defs>
</svg>
